<?xml version="1.0" encoding="UTF-8"?>
<svg id="Layer_1" xmlns="http://www.w3.org/2000/svg" version="1.1" viewBox="0 0 314.98 109.54">
  <!-- Generator: Adobe Illustrator 29.7.0, SVG Export Plug-In . SVG Version: 2.1.1 Build 138)  -->
  <defs>
    <style>
      .st0 {
        fill: red;
      }

      .st1 {
        fill: #1d272b;
      }

      .st2 {
        fill: #91836b;
      }
    </style>
  </defs>
  <path class="st1" d="M84.82,26.13c-.26-.49-.53-.96-.79-1.44-6.79-11.73-19.16-18.31-32.08-21.52-3.99-.98-8.02-1.63-12.05-2.05h-.18c-6.76-.72-13.66-.82-20.49-.96C17.88.13-.02-.48,0,.89v.52c.04,2.26.16,11.61.3,23.88.18,13.29.39,30.03.56,44.96.09,6.95.18,13.5.25,19.12.14,11.03.23,18.54.23,18.56.02.7,19.17,1.49,21.03,1.52,16.76.46,36.05-.82,50.11-11.29,3.5-2.61,6.43-5.8,8.81-9.35,3.83-5.72,6.3-12.4,7.62-19.17.11-.54.21-1.09.3-1.63,2.29-13.73,2.28-29.17-4.38-41.88ZM63.54,75.98c-2.98,6.43-8.14,10.59-14.2,13.06-4.2,1.75-8.82,2.68-13.43,2.96-1.12.07-12.85.28-12.85-.21,0,0,0-.93-.02-2.56-.02-3.62-.05-10.72-.11-19.14-.07-15.01-.16-34.14-.23-44.96-.02-5.18-.04-8.46-.04-8.46,0-.79,14.18.88,15.64,1.07,6.48.88,12.31,3.36,17.07,7.16h.09c5.9,4.69,10.05,11.4,11.28,19.56,1.23,8.25,1.31,17.16-.95,25.34-.6,2.12-1.33,4.18-2.26,6.18Z"/>
  <path class="st2" d="M291.11,65.79c-.25,1.35-.54,2.7-.91,4.01-.6,2.12-1.33,4.18-2.26,6.18-2.98,6.43-8.14,10.59-14.2,13.06-4.2,1.75-8.82,2.68-13.43,2.96-1.12.07-12.85.28-12.85-.21,0,0,0-.93-.02-2.56-.02-3.62-.05-10.72-.11-19.14,0-1.4-.02-2.84-.02-4.31h-22.11c.02,1.51.04,2.99.05,4.47.09,6.95.18,13.5.25,19.12.14,11.03.23,18.54.23,18.56.02.7,19.17,1.49,21.03,1.52,16.76.46,36.05-.82,50.11-11.29,3.5-2.61,6.43-5.8,8.81-9.35,3.83-5.72,6.3-12.4,7.62-19.17.11-.54.21-1.09.3-1.63.12-.74.25-1.47.35-2.22h-22.83ZM309.22,26.13c-.26-.49-.53-.96-.79-1.44-6.79-11.73-19.16-18.31-32.08-21.52-3.99-.98-8.02-1.63-12.05-2.05h-.18c-6.76-.72-13.66-.82-20.49-.96-1.37-.04-19.26-.65-19.24.72v.52c.04,2.26.16,11.61.3,23.88.11,8.3.23,17.93.35,27.63h22.2c-.04-10.49-.09-20.85-.14-27.79-.02-5.18-.04-8.46-.04-8.46,0-.79,14.18.88,15.64,1.07,6.48.88,12.31,3.36,17.07,7.16h.09c5.9,4.69,10.05,11.4,11.28,19.56.42,2.77.7,5.6.81,8.46h23.02c.05-9.26-1.47-18.59-5.76-26.79Z"/>
  <polygon class="st0" points="125.98 24.38 125.65 25.33 125.32 24.38 125.98 24.38"/>
  <polygon class="st0" points="125.98 24.38 125.65 25.33 125.32 24.38 125.98 24.38"/>
  <path class="st1" d="M168.32,88.19l-6.78-19.07-1.21-3.38-4.55-12.82-10.21-28.68L137.08.43l-2.57.02-17.68.12-2.68.02-8.53,23.94-16.04,45.09-6.83,19.19-7.3,20.5,20.35-.14,7.3-20.52,44.96-.32,7.27,20.42,20.26-.14-7.27-20.42ZM109.93,69.47l15.72-44.14-.33-.95h.67l-.33.95,15.64,43.93-31.36.21Z"/>
  <polygon class="st2" points="224.4 52.92 224.4 65.74 196.53 65.74 196.53 108.74 185.46 108.74 185.46 65.74 160.33 65.74 155.78 52.92 185.46 52.92 185.46 7.75 196.53 7.75 196.53 52.92 224.4 52.92"/>
</svg>